<?xml version="1.0" standalone="no"?><!DOCTYPE svg PUBLIC "-//W3C//DTD SVG 1.1//EN" "http://www.w3.org/Graphics/SVG/1.1/DTD/svg11.dtd"><svg t="1546281606845" class="icon" style="" viewBox="0 0 1024 1024" version="1.1" xmlns="http://www.w3.org/2000/svg" p-id="2716" xmlns:xlink="http://www.w3.org/1999/xlink" width="200" height="200"><defs><style type="text/css"></style></defs><path d="M797.910642 132.981694C713.688902 46.543593 600.654463 0 480.970938 0 361.287414 0 248.252974 46.543593 164.031235 132.981694c-175.092563 177.308925-175.092563 463.219566 0 640.528492 84.221739 86.4381 197.256179 132.981694 316.939703 132.981694 119.683525 0 232.717964-46.543593 316.939703-132.981694C973.003205 596.20126 973.003205 310.290618 797.910642 132.981694zM480.970938 848.866478c-104.168993 0-203.905264-42.11087-277.045195-115.250801-152.928948-155.145309-152.928948-405.594166 0-560.739475 73.139931-75.356293 172.876202-115.250801 277.045195-115.250801 104.168993 0 203.905264 42.11087 277.045195 115.250801 152.928948 155.145309 152.928948 405.594166 0 560.739475C684.876202 808.97197 585.139931 848.866478 480.970938 848.866478zM984.085013 972.982726 844.454234 833.351947c-11.081808-11.081808-28.8127-11.081808-39.894508 0-11.081808 11.081808-11.081808 28.8127 0 39.894508l139.630779 141.84714c4.432723 4.432723 13.298169 8.865446 19.947254 8.865446 6.649085 0 13.298169-2.216361 19.947254-8.865446C995.16682 1001.795426 995.16682 984.064533 984.085013 972.982726z" p-id="2717" fill="#707070"></path></svg>